<?xml version="1.0" encoding="UTF-8"?>
<svg id="Lager_2" data-name="Lager 2" xmlns="http://www.w3.org/2000/svg" viewBox="0 0 945.74 532.74">
  <defs>
    <style>
      .cls-1 {
        fill: #d6b046;
      }

      .cls-2 {
        fill: #848480;
      }

      .cls-3 {
        fill: #007c42;
      }

      .cls-4 {
        fill: #f4f2f2;
      }
    </style>
  </defs>
  <g id="Lager_1-2" data-name="Lager 1">
    <g>
      <g>
        <g>
          <path class="cls-1" d="M18.1,102.11H115.71v22.69H23.15c-2.79,0-5.05-2.26-5.05-5.05v-17.64h0Z"/>
          <path class="cls-1" d="M192.2,102.11h96.57v17.55c0,2.84-2.3,5.14-5.14,5.14h-91.43v-22.69h0Z"/>
          <rect class="cls-1" x="124.93" y="102.11" width="58.05" height="22.69"/>
          <rect class="cls-1" x="24.22" y="69.82" width="57.77" height="23.08"/>
          <rect class="cls-1" x="225.64" y="69.82" width="55.63" height="23.08"/>
          <rect class="cls-1" x="91.22" y="69.82" width="125.2" height="23.08"/>
          <path class="cls-1" d="M33.4,34.92V9.98h4.59V0h-5.38V6.01h-11.06V0h-4.7V6.01H5.79V0H.41V9.98H5v24.94l14.86,25.68,13.54-25.68Z"/>
          <polygon class="cls-1" points="74.91 60.6 31.73 60.6 45.35 34.92 60 34.92 74.91 60.6"/>
          <polygon class="cls-1" points="141.9 60.6 98.73 60.6 112.35 34.92 127 34.92 141.9 60.6"/>
          <polygon class="cls-1" points="209.17 60.6 166 60.6 179.62 34.92 194.27 34.92 209.17 60.6"/>
          <polygon class="cls-1" points="275.07 60.6 231.89 60.6 245.51 34.92 260.16 34.92 275.07 60.6"/>
          <path class="cls-1" d="M100.35,34.92V9.98h4.59V0h-5.38V6.01h-11.06V0h-4.7V6.01h-11.06V0h-5.38V9.98h4.59v24.94l14.86,25.68,13.54-25.68Z"/>
          <path class="cls-1" d="M167.86,34.92V9.98h4.59V0h-5.38V6.01h-11.06V0h-4.7V6.01h-11.06V0h-5.38V9.98h4.59v24.94l14.77,25.68,13.63-25.68Z"/>
          <path class="cls-1" d="M300.5,34.92V9.98h4.59V0h-5.38V6.01h-11.06V0h-4.7V6.01h-11.06V0h-5.38V9.98h4.59v24.94l14.86,25.68,13.54-25.68Z"/>
          <path class="cls-1" d="M234.55,34.92V9.98h4.59V0h-5.38V6.01h-11.06V0h-4.7V6.01h-11.06V0h-5.38V9.98h4.59v24.94l14.86,25.68,13.54-25.68Z"/>
        </g>
        <g>
          <g>
            <path class="cls-2" d="M284.59,134.03H20.78c-11.45,0-20.78,9.29-20.78,20.78V433.53c0,29.32,21.34,54.32,50.28,58.92l50.28,7.97c11.45,1.83,22.09,6.9,30.72,14.64l18.34,16.46c.89,.8,2.02,1.22,3.14,1.22s2.25-.42,3.14-1.22l18.34-16.46c8.63-7.74,19.28-12.81,30.72-14.64l50.24-7.97c28.99-4.6,50.28-29.6,50.28-58.92V154.95c0-11.59-9.33-20.92-20.92-20.92Zm17.17,299.5c0,27.63-19.79,50.85-47.09,55.21l-50.24,7.97c-12.2,1.92-23.45,7.32-32.65,15.53l-18.34,16.51c-.23,.19-.47,.23-.66,.23-.14,0-.38-.05-.61-.23l-18.39-16.51c-9.15-8.21-20.45-13.6-32.6-15.53l-50.28-7.97c-27.3-4.36-47.14-27.58-47.14-55.21V154.81c0-9.43,7.65-17.03,17.03-17.03H284.59c9.48,0,17.17,7.69,17.17,17.17V433.53Z"/>
            <path class="cls-4" d="M301.75,154.95V433.53c0,27.63-19.79,50.85-47.09,55.21l-50.24,7.97c-12.2,1.92-23.45,7.32-32.65,15.53l-18.34,16.51c-.23,.19-.47,.23-.66,.23-.14,0-.38-.05-.61-.23l-18.39-16.51c-9.15-8.21-20.45-13.6-32.6-15.53l-50.28-7.97c-27.3-4.36-47.14-27.58-47.14-55.21V154.81c0-9.43,7.65-17.03,17.03-17.03H284.59c9.48,0,17.17,7.69,17.17,17.17Z"/>
          </g>
          <g>
            <g>
              <path class="cls-3" d="M240.19,311.49c-4.71-3.09-6.01-9.42-2.92-14.14l2.23-3.39c3.12-4.69,9.45-6.01,14.16-2.89,.59,.39,.75,1.2,.36,1.79-4.55,5.48-8.55,11.59-12.05,18.27-.39,.59-1.2,.78-1.79,.36Z"/>
              <path class="cls-3" d="M246.52,314.4c-.5-.34-.98-.69-1.44-1.05-.5-.4-.67-1.04-.44-1.55,1.4-3.03,3.11-6.08,5.13-9.04,2.03-2.96,4.26-5.67,6.58-8.09,.38-.4,1.05-.46,1.59-.14,.5,.3,1,.62,1.5,.96,6.53,4.47,9.43,12.04,8.84,16.71-.13,1.04,.06,2.13,.61,3.12l.02,.04c.2,.35-.06,.73-.46,.68h0c-1.14-.15-2.24,.08-3.17,.59-4.15,2.3-12.22,2.25-18.78-2.23Z"/>
            </g>
            <g>
              <path class="cls-3" d="M217.5,221.81c-2,5.27-7.91,7.9-13.18,5.9l-3.79-1.44c-5.25-2.03-7.91-7.93-5.88-13.21,.25-.66,1.01-.99,1.67-.74,6.34,3.26,13.16,5.85,20.44,7.82,.66,.25,1.02,1,.74,1.67Z"/>
              <path class="cls-3" d="M218.99,215c-.23,.56-.46,1.1-.72,1.63-.28,.57-.87,.88-1.41,.76-3.26-.71-6.61-1.72-9.93-3.06-3.33-1.34-6.46-2.93-9.32-4.68-.47-.29-.67-.92-.48-1.52,.18-.56,.38-1.11,.61-1.67,2.95-7.34,9.72-11.81,14.41-12.23,1.04-.09,2.07-.52,2.92-1.27l.04-.03c.3-.27,.73-.1,.76,.3h0c.1,1.15,.56,2.17,1.26,2.97,3.14,3.55,4.83,11.45,1.87,18.81Z"/>
            </g>
            <g>
              <path class="cls-3" d="M66.64,311.49c4.71-3.09,6.01-9.42,2.92-14.14l-2.23-3.39c-3.12-4.69-9.45-6.01-14.16-2.89-.59,.39-.75,1.2-.36,1.79,4.55,5.48,8.55,11.59,12.05,18.27,.39,.59,1.2,.78,1.79,.36Z"/>
              <path class="cls-3" d="M60.31,314.4c.5-.34,.98-.69,1.44-1.05,.5-.4,.67-1.04,.44-1.55-1.4-3.03-3.11-6.08-5.13-9.04-2.03-2.96-4.26-5.67-6.58-8.09-.38-.4-1.05-.46-1.59-.14-.5,.3-1,.62-1.5,.96-6.53,4.47-9.43,12.04-8.84,16.71,.13,1.04-.06,2.13-.61,3.12l-.02,.04c-.2,.35,.06,.73,.46,.68h0c1.14-.15,2.24,.08,3.17,.59,4.15,2.3,12.22,2.25,18.78-2.23Z"/>
            </g>
            <g>
              <path class="cls-3" d="M87.43,221.81c2,5.27,7.91,7.9,13.18,5.9l3.79-1.44c5.25-2.03,7.91-7.93,5.88-13.21-.25-.66-1.01-.99-1.67-.74-6.34,3.26-13.16,5.85-20.44,7.82-.66,.25-1.02,1-.74,1.67Z"/>
              <path class="cls-3" d="M85.95,215c.23,.56,.46,1.1,.72,1.63,.28,.57,.87,.88,1.41,.76,3.26-.71,6.61-1.72,9.93-3.06,3.33-1.34,6.46-2.93,9.32-4.68,.47-.29,.67-.92,.48-1.52-.18-.56-.38-1.11-.61-1.67-2.95-7.34-9.72-11.81-14.41-12.23-1.04-.09-2.07-.52-2.92-1.27l-.04-.03c-.3-.27-.73-.1-.76,.3h0c-.1,1.15-.56,2.17-1.26,2.97-3.14,3.55-4.83,11.45-1.87,18.81Z"/>
            </g>
            <g>
              <path class="cls-3" d="M284.17,226.98c-.23,1.5-1.13,3.05-1.92,4.13-2.3,2.96-4.6,5.54-7.55,7.69-2.63,1.97-6.43,2.67-8.54,5.39-.38,.52-.61,1.27-.28,1.83,.14,.33,.52,.56,.84,.75,1.41,.94,3.05,1.31,4.5,2.11,1.55,.84,3.28,2.02,4.27,3.28,.99,1.31,1.41,1.74,1.27,3.47-.09,1.74-1.59,3.71-3.38,4.55-3.33,1.59-6.66,.8-10.32,.7-3.66-.09-7.41-.14-10.98,1.22-1.88,.7-3.89,2.67-2.91,4.74,.66,1.45,2.44,2.11,3.28,3.14,.8,1.03,1.17,1.69,1.03,2.91-.19,1.22-1.08,2.16-2.25,2.67-2.67,1.17-5.96,1.22-8.82,1.22-7.79,.09-14.4-2.02-22.37-.94-10.04,1.31-19.98,3.52-28.94,8.4-7.97,4.32-15.1,11.68-21.91,18.29-.19,.19-.28,.42-.28,.66,0,.05,0,.14,.05,.23,.19,.56,.84,.75,1.27,.38,1.22-.94,2.44-1.78,3.75-2.63,2.58-1.74,5.21-3.24,7.93-4.69,5.39-2.77,11.21-4.97,17.12-6.33,2.96-.75,6.05-1.08,9.05-1.5,1.5-.09,3.05-.09,4.6-.14,.75-.05,1.5-.09,2.25-.05l2.3,.14c6.1,.19,12.01,1.88,17.73,3.71,.89,.28,1.36,1.22,1.08,2.11-.28,.89-1.17,1.36-2.02,1.13l-.14-.05c-5.54-1.45-11.12-2.67-16.79-2.58h-2.11c-.7,0-1.41,.09-2.11,.14-1.41,.14-2.86,.23-4.27,.38-2.72,.56-5.54,.99-8.21,1.92-5.39,1.55-10.6,3.8-15.48,6.66-2.2,1.31-4.36,2.77-6.47,4.32-.66,.47-.09,1.45,.61,1.17,.28-.05,.52-.14,.75-.23,10.69-3.28,20.73-4.03,31.76-2.3,2.67,.42,5.11,1.64,7.6,2.49,.99,.33,1.92,.8,2.72,1.22,4.74,2.77,9.43,6.61,12.9,10.46,2.96,3.24,5.44,6.94,7.18,10.98,.47,1.13,.94,2.35,.94,3.56-.05,2.11-1.41,4.13-3.52,4.55-1.59,.33-3.8-1.27-5.16-.47-2.02,1.08-1.08,5.82-.38,7.41,1.08,2.25,2.49,5.3,3.99,7.83,1.83,2.91,4.13,5.54,5.63,8.63,1.22,2.35,2.35,6.75-.05,8.77-1.41,1.22-3.38,.66-4.97,.19-2.39-.75-8.07-4.08-9.05,.09-.52,2.02,.52,4.36,.89,6.33,.89,4.22,1.13,8.3,0,12.52-.52,2.16-1.83,4.78-4.27,5.16-1.74,.33-3.28-1.13-4.27-2.39-1.78-2.49-2.86-6.61-6.71-3.94-3.1,2.11-4.27,6.05-7.04,8.54-2.06,1.78-5.49,3.47-8.21,2.16-3.61-1.78-4.69-6.29-3.38-9.8,.66-1.83,2.02-3.89,1.55-5.91-.66-3.24-4.93-.52-6.71-.14-2.81,.7-6.19-.38-5.21-3.99,.23-.84,.66-1.55,1.13-2.25,1.5-2.3,3.28-4.41,5.35-6.33,1.83-1.69,4.08-2.96,5.86-4.69,1.31-1.36,2.06-1.41,2.25-3.33,.14-1.88-1.59-2.67-3.66-2.63-2.02,0-5.07,.56-7.18,.84-2.25,.28-4.27,.09-5.63-1.97-.66-1.03-.89-2.35-.52-3.47,.33-.89,.99-1.59,1.69-2.25,2.96-2.86,6.43-4.83,9.94-6.85,3.47-2.02,6.19-3.19,9.19-5.3,1.17-.84,3.14-2.86,2.67-4.5-.52-1.74-2.77-1.83-4.22-1.5-2.58,.61-5.96,1.36-7.41-1.59-1.64-3.28,1.97-6.14,3.94-8.21,2.77-2.86,4.13-7.65,2.53-11.49-1.5-3.66-5.49-5.02-9.24-5.11-6.99-.19-12.48,2.81-17.64,6.71-5.63,4.17-9.29,10.51-10.13,17.45v.19c-.7,6.1-.84,12.2-.42,18.39l2.44,38.46c.28,5.35,2.49,10.41,6.47,14.03,.09,.09,.19,.19,.33,.28,3.94,3.42,9.05,5.44,14.21,6.29,10.51,1.78,21.25-.84,31.9-2.81,3.28-.61,6.57-1.17,9.9-1.5,2.16-.23,4.27-.42,6.43-.42,.84,0,1.74,.05,2.63,.09,4.6,.19,9.29,1.13,13.7,3,5.16,2.2,9.9,6.05,12.85,11.07,3,4.97,4.5,10.98,4.03,16.89-.05,.84-.7,1.45-1.5,1.36-.7-.05-1.22-.61-1.31-1.27l-.05-.33c-.66-5.3-2.63-10.18-5.77-13.74-3-3.66-6.8-5.91-11.07-7.27-1.78-.47-3.56-.84-5.44-1.08-3.75-.47-7.22,2.77-6.66,6.66,.09,.56,.28,1.17,.47,1.69,.8,1.59,1.64,3.19,2.63,4.83,1.08,1.92,2.35,3.94,3.38,6.24,1.03,2.16,1.88,4.78,1.78,7.41-.05,2.67-1.13,5.39-3,7.18-.52,.52-1.31,.47-1.78-.05-.42-.47-.47-1.13-.19-1.59,.98-1.64,1.78-3.47,1.5-5.35-.28-1.88-1.08-3.61-2.25-5.25-2.35-3.28-5.91-6.24-8.68-10.46-1.31-2.02-2.72-4.32-3.71-6.99-.56-1.78-2.35-2.81-4.08-2.44-.7,.19-1.5,.38-2.2,.56-5.11,1.08-10.51,2.58-16.32,3.47-5.82,.75-12.24,1.22-18.67-.14-3.19-.7-6.43-1.74-9.52-3.28-3-1.59-6-3.71-8.49-6.19-.56-.56-1.13-1.17-1.64-1.83-.14,.19-.23,.38-.33,.56-1.5,2.16-1.83,5.11-1.31,8.07,.33,1.5,.84,3,1.5,4.41,.7,1.45,1.69,2.72,2.77,3.99,2.11,2.58,5.02,4.36,8.12,5.91,.84,.42,1.64,.75,2.58,1.03,2.39,.8,4.88,1.22,7.46,1.64,2.11,.23,4.22,.52,6.33,.94,4.97,.94,9.85,2.49,14.35,5.02,3.19,1.69,6.14,4.03,8.54,6.9,2.49,2.81,4.36,6.24,5.39,9.99,.23,.66-.14,1.36-.8,1.59-.56,.14-1.17-.09-1.41-.61l-.28-.42c-1.64-3.14-3.8-5.68-6.38-7.55-2.44-1.97-5.21-3.28-8.07-4.27-1.08-.33-2.16-.66-3.24-.94-2.02-.47-3.8,1.31-3.33,3.42,1.03,4.78,.66,7.6-.28,12.24-.42,2.3-1.08,4.55-1.97,6.71-.94,2.11-2.25,4.22-4.03,5.77-.42,.33-1.08,.23-1.36-.19-.33-.33-.33-.89,0-1.27,2.39-3.1,2.86-7.51,2.86-11.49-.09-4.03-.75-8.16-2.49-11.54-1.97-3.1-5.25-5.07-8.87-5.3l-1.36-.05c-.28,0-.56-.05-.84-.05-2.02-.28-4.08-.66-6.05-1.22-4.27-1.27-6.38-1.59-10.23-4.55-.66-.47-3.47-2.53-4.13-3.14-.52,2.53-1.17,5.07-2.16,7.46-.75,1.74-1.64,3.38-2.63,4.93-.99,1.5-2.06,2.91-3.14,4.17-1.31,1.59-2.58,3.19-3.66,4.88-1.27,1.88-1.74,4.22-1.31,6.43,.56,2.02,.98,2.81,2.11,4.6,2.25,3.61,5.35,6.85,9.15,9.19,3.71,2.16,8.21,4.03,12.38,3.05,.61-.09,1.22,.28,1.31,.94,.14,.52-.19,1.08-.66,1.27-2.44,.99-5.16,1.13-7.65,.8-2.49-.23-4.97-.89-7.32-1.78-2.96-1.17-5.91-2.39-8.44-4.41-.56-.42-1.08-.94-1.59-1.45-1.59-1.5-4.74-1.78-4.97,1.22-.09,.7-.14,1.41-.14,2.11-.09,3.28,.14,6.61,.75,9.8,.8,3.14,1.83,6.29,3.38,9.01,.42,.75,.23,1.64-.47,2.06-.61,.38-1.36,.23-1.78-.23l-.38-.52c-4.74-5.39-7.41-12.9-8.02-20.55-.38-3.8-.05-7.65,.47-11.45,.33-2.06,.8-4.03,1.41-6.05,.47-1.74,1.03-3.47,1.74-5.16,1.22-3,3-6.1,4.5-8.54,.28-.47,.52-.84,.8-1.27,.8-1.31,1.5-2.44,1.97-3.42,.42-.94,.75-1.74,1.03-2.77,.66-2.3,.89-5.3,.94-8.77-1.69,2.16-3.61,4.08-5.68,5.72-3.71,2.96-7.93,4.88-12.1,6.24-2.16,.61-4.32,1.03-6.47,1.31-2.06,.23-4.03,.38-5.82,.47-.66,0-1.27,0-1.88,.05-2.72,.05-5.11,1.88-6.05,4.5-1.17,3.19-1.74,6.61-1.74,10.13,0,.89,.05,1.78,.14,2.72,.56,4.36,1.78,9.05,4.93,11.91,.47,.42,.52,1.17,.09,1.69-.38,.42-.99,.52-1.45,.19-2.16-1.45-3.85-3.56-5.11-5.77-1.22-2.2-2.2-4.55-2.91-7.04-1.17-4.08-1.64-8.35-1.31-12.71,.14-1.59-1.08-3.05-2.67-3.14-.42-.05-.8,.05-1.22,.14-2.58,.98-5.11,2.25-7.36,4.03-2.58,1.88-4.64,4.41-6.43,7.46l-.28,.52c-.38,.66-1.22,.94-1.92,.52-.61-.38-.8-1.08-.61-1.69,1.13-3.8,3-7.22,5.54-9.99,2.39-2.86,5.35-5.21,8.54-6.9,3.1-1.74,6.38-2.96,9.71-3.85,3.61-1.03,7.36-1.69,11.07-2.06,.7-.14,1.41-.23,2.16-.42,2.72-.47,5.39-1.08,7.88-2.11,3.1-1.55,6.1-3.28,8.3-5.82,1.13-1.22,2.11-2.49,2.86-3.89,.75-1.41,1.31-2.86,1.74-4.36,.56-2.53,.61-5.11-.09-7.22-.38,.52-.75,.98-1.17,1.5-1.17,1.45-2.58,2.77-4.13,3.89-1.55,1.08-3.14,2.02-4.74,2.86-3.24,1.74-6.66,2.63-9.99,3.33-6.75,1.17-13.32,.38-19.09-.94-5.86-1.31-9.8-2.67-14.82-4.08,0-.05-.05-.05-.05-.05-2.06-.56-4.32,.28-5.39,2.25-.8,1.5-1.78,2.86-2.72,4.17-3.38,4.5-7.46,7.74-10.41,11.3-1.41,1.83-2.49,3.75-2.77,5.82-.14,1.08-.05,2.11,.23,3.1,.33,.94,.89,1.88,1.64,2.63,.52,.61,.52,1.45-.05,2.02-.47,.52-1.27,.56-1.83,.09-2.2-1.88-3.61-4.97-3.56-8.02,0-3.1,1.27-5.96,2.63-8.26,2.72-4.88,6.05-8.63,8.02-12.81l.05-.05c1.27-2.49-.38-5.54-3.14-5.77-4.32-.28-8.49,.05-12.52,1.27-4.36,1.31-8.35,3.8-11.26,7.6-3.05,3.71-4.93,8.68-5.3,13.93v.28c-.05,.84-.8,1.5-1.59,1.45-.75-.05-1.36-.7-1.41-1.45-.42-5.91,1.13-11.91,4.17-16.84,2.96-5.07,7.69-8.87,12.85-11.07,5.16-2.25,10.79-3.14,16.32-3.1,.8,0,1.64,0,2.49,.09,3.38,.09,6.71,.56,9.99,1.08,1.27,.23,2.58,.47,3.8,.7,10.69,1.92,21.39,4.55,31.9,2.77,5.21-.8,10.18-2.96,14.21-6.24l.05-.09c2.16-1.78,3.8-4.03,4.97-6.52,1.13-2.49,1.83-5.16,1.92-7.97,.61-9.57,2.49-38.18,2.49-38.18,.38-6.19,.28-12.29-.42-18.39-.05-.09-.05-.14-.05-.19-.84-6.94-4.55-13.27-10.18-17.5-5.25-3.85-10.84-6.85-17.82-6.66-3.71,.09-7.74,1.45-9.24,5.11-1.59,3.85-.19,8.63,2.53,11.49,1.97,2.06,5.58,4.93,3.99,8.21-1.45,2.96-4.88,2.2-7.41,1.59-1.45-.33-3.71-.23-4.27,1.5-.47,1.64,1.5,3.66,2.67,4.5,3,2.11,5.77,3.28,9.19,5.3,3.52,2.02,7.04,3.99,9.99,6.85,.66,.66,1.31,1.36,1.64,2.25,.38,1.13,.19,2.44-.52,3.47-1.31,2.06-3.33,2.25-5.58,1.97-2.16-.28-5.16-.84-7.22-.84-2.02-.05-3.75,.75-3.61,2.63,.14,1.92,.89,1.97,2.25,3.33,1.74,1.74,4.03,3,5.82,4.69,2.06,1.92,3.89,4.03,5.35,6.33,.47,.7,.94,1.41,1.13,2.25,.99,3.61-2.39,4.69-5.16,3.99-1.78-.38-6.1-3.1-6.75,.14-.42,2.02,.89,4.08,1.59,5.91,1.27,3.52,.19,8.02-3.38,9.8-2.77,1.31-6.14-.38-8.21-2.16-2.81-2.49-3.94-6.43-7.08-8.54-3.85-2.67-4.93,1.45-6.71,3.94-.94,1.27-2.53,2.72-4.27,2.39-2.44-.38-3.71-3-4.27-5.16-1.08-4.22-.84-8.3,0-12.52,.38-1.97,1.41-4.32,.94-6.33-1.03-4.17-6.66-.84-9.1-.09-1.55,.47-3.56,1.03-4.97-.19-2.39-2.02-1.22-6.43-.05-8.77,1.55-3.1,3.85-5.72,5.63-8.63,1.55-2.53,2.91-5.58,3.99-7.83,.75-1.59,1.69-6.33-.33-7.41-1.41-.8-3.61,.8-5.16,.47-2.11-.42-3.52-2.44-3.52-4.55,0-1.22,.42-2.44,.89-3.56,1.78-4.03,4.22-7.74,7.18-10.98,3.47-3.85,8.16-7.69,12.9-10.46,.8-.42,1.78-.89,2.72-1.22,2.53-.84,4.97-2.06,7.65-2.49,10.98-1.74,21.01-.99,31.71,2.3,1.22,.38,2.39,.84,3.52,1.41,.7,.33,1.36-.66,.7-1.17-2.53-2.02-5.3-3.85-8.07-5.49-4.83-2.86-10.04-5.11-15.43-6.66-2.67-.94-5.49-1.36-8.26-1.92-1.36-.14-2.81-.23-4.17-.38-.75-.05-1.41-.14-2.16-.14h-2.11c-5.68-.09-11.26,1.13-16.75,2.58l-.19,.05c-.89,.23-1.78-.28-2.06-1.17-.19-.89,.28-1.78,1.13-2.06,5.72-1.83,11.63-3.52,17.73-3.71l2.3-.14c.75-.05,1.5,0,2.3,.05,1.5,.05,3,.05,4.55,.14,3.05,.42,6.1,.75,9.01,1.5,6,1.36,11.77,3.56,17.21,6.33,2.67,1.45,5.3,2.96,7.83,4.69,1.13,.7,2.16,1.41,3.14,2.16,.23,.19,.56,.09,.7-.19v-.19c0-.09-.05-.19-.14-.28-6.85-6.61-14.03-14.07-22.05-18.43-8.96-4.88-18.95-7.08-28.99-8.4-7.97-1.08-14.59,1.03-22.37,.94-2.86,0-6.1-.05-8.82-1.22-1.17-.52-2.06-1.45-2.2-2.67-.19-1.22,.19-1.88,.99-2.91,.84-1.03,2.63-1.69,3.33-3.14,.94-2.06-1.08-4.03-2.91-4.74-3.61-1.36-7.36-1.31-11.02-1.22-3.66,.09-6.99,.89-10.32-.7-1.78-.84-3.28-2.81-3.38-4.55-.14-1.74,.33-2.16,1.27-3.47,.99-1.27,2.72-2.44,4.32-3.28,1.45-.8,3.1-1.17,4.5-2.11,.33-.19,.66-.42,.84-.75,.28-.56,.05-1.31-.33-1.83-2.11-2.72-5.86-3.42-8.54-5.39-2.95-2.16-5.21-4.74-7.51-7.69-.8-1.08-1.69-2.63-1.92-4.13-.23-1.5-.05-3.05,1.17-4.13,1.22-1.08,3-1.13,4.5-.84,1.5,.23,2.96,1.45,4.27,1.5,1.36,.09,2.58-.09,3.05-1.5,.89-3-1.45-6.47-2.35-9.29-.89-2.86-2.2-5.68-2.02-8.63,.19-2.49,1.22-4.64,3.47-5.86,2.77-1.45,5.91-.8,8.21,1.13,3.28,2.77,4.5,6.9,6.1,10.69,.52,1.31,1.45,2.58,2.81,2.81,1.13,.23,2.35-.33,3.19-1.17,2.3-2.11,3.85-6.85,7.69-6.14,1.83,.33,3.28,1.64,3.75,3.42,.47,1.78,0,3.47-.28,5.3-.42,2.3-1.08,4.55-1.59,6.8-.38,1.83-1.45,4.55-.33,6.29,1.22,1.88,3.61,.52,4.6-.8,.98-1.22,1.45-2.35,2.25-3.75,1.31-2.35,2.72-5.35,5.68-5.86,1.27-.23,2.58,.28,3.28,1.31,2.06,2.67,2.63,6.05,2.3,9.33-.42,3.61-1.88,6.99-2.86,10.51-.61,2.49-.61,4.55-.66,6.9-.05,1.36,.05,2.77,.89,3.71,2.67,3,4.88-.23,6.85-2.35,.99-1.08,1.69-1.5,3.33-1.64,1.74-.05,3.38,.98,4.08,2.63,.84,1.83,.89,3.28,.99,4.97,.42,4.46,1.64,9.33,4.22,12.76,2.58,3.38,5.3,5.25,8.44,7.6,3.14,2.3,6.43,3.56,9.62,5.63,3.24,2.11,6.33,4.03,9.48,6.43,3.14,2.35,6.33,4.97,9.38,7.65,1.69,1.45,3.33,3.1,4.97,4.69,.38,.42,.99,.47,1.45,.14,.33-.23,.52-.56,.52-.94,0-.19-.05-.33-.14-.47-.56-1.22-1.22-2.39-1.88-3.52-1.64-2.86-3.42-5.63-5.39-8.3-3.94-5.35-8.4-10.37-13.13-15.15-2.25-2.35-4.97-4.88-7.18-7.79-2.25-2.86-4.13-5.91-5.68-9.1-3.14-6.43-5.07-13.37-5.58-20.45-.05-.94,.61-1.74,1.5-1.78h.09c.89,0,1.59,.61,1.69,1.45,.94,6.57,3.1,12.95,6.33,18.62,1.64,2.86,3.52,5.54,5.68,7.97,2.11,2.44,4.5,4.41,7.18,6.8,5.21,4.69,10.18,9.66,14.64,15.1,2.25,2.72,4.41,5.58,6.33,8.58l.05,.05c.8,1.17,2.67,.7,2.72-.7,.23-3.33,.38-6.9,.33-9.33-.09-2.35-.19-5.54-.56-7.97-.19-1.17-.33-1.74-.94-2.95-.61-1.27-1.55-2.35-3.05-3.24-4.83-2.72-9.71-5.63-14.12-9.33-1.83-1.59-3.42-3.75-4.93-5.82-1.55-2.16-1.74-5.25-1.22-7.74,.14-.56,.33-1.13,.75-1.55,.33-.42,.89-.66,1.41-.75,1.78-.42,5.96,1.59,6.14-1.64,.09-1.22-.19-2.49-.7-3.42-1.69-3-3.89-5.91-5.58-8.68-1.69-2.72-2.96-3.94-4.41-6.99-1.5-3-2.58-7.08-2.02-10.84,.23-1.45,1.08-2.86,2.35-3.8,1.27-.98,3.42-1.03,4.74-.52,1.36,.52,2.06,1.31,3.19,1.64,1.17,.38,1.83,.66,3,.38,1.22-.28,1.78-.84,1.36-2.35-.38-1.5-1.13-3.52-1.97-5.02-1.74-3.28-4.03-7.04-5.82-10.18-1.83-3.28-4.08-9.19-1.97-12.76,.8-1.45,2.16-2.49,3.66-3.14,.56-.23,1.13-.33,1.69-.28,2.39,.23,3.99,2.49,6.19,3.14,4.08,1.27,5.68,.56,6.71-3.75,.52-2.02,.09-4.46,.42-6.9,.38-2.44,.42-5.21,2.11-7.55,1.64-2.44,4.41-4.46,7.65-4.32,3.14,.14,5.39,1.88,7.04,4.46,1.64,2.67,1.92,6.43,1.97,9.15,0,2.72-.28,4.46-.33,6.85-.05,2.35,1.97,3.19,3.75,2.96,1.74-.19,2.63-1.17,3.94-1.64,1.31-.42,2.06-1.36,3.24-1.59,4.97-.94,8.02,.47,9.05,5.63,.47,2.39-.38,4.27-1.45,6.71-1.03,2.44-3.71,6.52-4.93,8.72-1.22,2.25-2.35,4.08-3.14,5.72-.75,1.69-.8,1.78-1.22,3.28-.42,1.5,1.13,2.77,2.44,2.67,1.36-.05,2.39-.56,3.42-.84,1.08-.28,1.78-.8,2.72-.99,3.05-.7,5.16,0,6.71,2.72,.66,1.22,.84,2.35,.61,3.71-.66,3.85-1.64,6.8-4.08,10.04-2.39,3.24-5.72,6.75-8.3,9.9-.99,1.22-2.02,3-2.63,3.94-.61,.94-.56,1.41-.75,1.92-1.17,4.41,4.74,1.97,6.57,3.05,.84,.52,1.27,1.55,1.41,2.53,.14,1.78,0,3.42-.75,5.02-1.08,2.49-3.19,5.82-5.58,8.11-4.03,3.94-8.68,7.41-13.42,10.93-1.31,.99-2.35,1.88-2.81,4.03-.42,2.2-.66,5.68-.75,8.26-.09,2.67,0,6.8,.28,10.6,.09,1.08,1.5,1.41,2.06,.52l.05-.05c1.97-3,4.08-5.86,6.33-8.58,4.55-5.44,9.48-10.41,14.64-15.1,2.72-2.39,5.11-4.36,7.22-6.8,2.16-2.44,4.03-5.11,5.63-7.97,3.24-5.68,5.49-12.05,6.33-18.62,.14-.94,.98-1.59,1.88-1.45,.89,.09,1.5,.89,1.45,1.78-.52,7.08-2.44,14.03-5.58,20.45-1.55,3.19-3.47,6.24-5.72,9.1-2.16,2.91-4.88,5.44-7.18,7.79-4.74,4.78-9.19,9.8-13.09,15.15-1.97,2.67-3.8,5.44-5.39,8.3-.56,.99-1.13,1.97-1.64,2.96-.33,.66-.09,1.45,.47,1.83l.05,.05c.56,.38,1.36,.28,1.83-.19,1.55-1.55,3.14-3.14,4.78-4.55,3.05-2.67,6.29-5.3,9.43-7.65,3.14-2.39,6.24-4.32,9.43-6.43,3.24-2.06,6.47-3.33,9.62-5.63,3.14-2.35,5.86-4.22,8.49-7.6,2.58-3.42,3.8-8.3,4.17-12.76,.14-1.69,.19-3.14,.99-4.97,.7-1.64,2.35-2.67,4.08-2.63,1.64,.14,2.35,.56,3.38,1.64,1.92,2.11,4.13,5.35,6.8,2.35,.89-.94,.94-2.35,.94-3.71-.05-2.35-.05-4.41-.7-6.9-.94-3.52-2.44-6.9-2.81-10.51-.38-3.28,.19-6.66,2.25-9.33,.75-1.03,2.02-1.55,3.28-1.31,2.96,.52,4.36,3.52,5.72,5.86,.8,1.41,1.22,2.53,2.2,3.75,1.03,1.31,3.38,2.67,4.6,.8,1.13-1.74,.09-4.46-.33-6.29-.52-2.25-1.17-4.5-1.55-6.8-.33-1.83-.8-3.52-.33-5.3,.47-1.78,1.97-3.1,3.8-3.42,3.8-.7,5.39,4.03,7.65,6.14,.89,.84,2.06,1.41,3.24,1.17,1.36-.23,2.3-1.5,2.81-2.81,1.55-3.8,2.77-7.93,6.1-10.69,2.3-1.92,5.44-2.58,8.21-1.13,2.2,1.22,3.24,3.38,3.42,5.86,.19,2.96-1.13,5.77-1.97,8.63-.89,2.81-3.28,6.29-2.35,9.29,.42,1.41,1.64,1.59,3,1.5,1.36-.05,2.81-1.27,4.32-1.5,1.45-.28,3.24-.23,4.46,.84,1.22,1.08,1.41,2.63,1.22,4.13Z"/>
              <g>
                <path class="cls-4" d="M152.75,173.65c-.55,0-1,.44-1.01,1l-1.33,67.37s0,.06,0,.09c.03,1.28,1.07,2.3,2.34,2.3,.02,0,.03,0,.05,0,1.3-.03,2.32-1.1,2.3-2.39l-1.33-67.37c-.01-.54-.45-.98-1-.99,0,0-.01,0-.02,0h0Z"/>
                <path class="cls-4" d="M261.3,222.61c-1.58,4.65-3.67,8.94-6.06,13.14-2.39,4.18-5.11,8.18-8.17,11.92-3.04,3.75-6.36,7.31-10.02,10.49-3.58,3.29-7.59,6.07-11.67,8.74-1.09,.71-2.54,.4-3.25-.68-.71-1.09-.4-2.54,.68-3.25,.03-.02,.05-.03,.08-.05l.11-.06c3.95-2.35,7.87-4.81,11.42-7.79,3.63-2.87,6.95-6.14,10.03-9.61,6.14-6.93,11.35-14.95,14.79-23.52l.03-.07c.22-.56,.86-.83,1.41-.6,.54,.22,.81,.81,.62,1.36Z"/>
                <path class="cls-4" d="M220.83,328.95c1.42,8.89,.85,17.8-.81,26.4-1.67,8.61-4.65,16.88-8.43,24.69-.24,.5-.84,.7-1.33,.46-.48-.23-.69-.81-.48-1.3,3.31-7.86,5.77-16.06,6.95-24.43,1.18-8.33,1.24-16.9-.49-24.95-.28-1.26,.51-2.52,1.77-2.81,1.26-.29,2.52,.51,2.81,1.77,0,.04,.02,.11,.03,.15Z"/>
                <path class="cls-4" d="M46.26,221.93c3.45,8.56,8.65,16.59,14.79,23.52,3.08,3.47,6.4,6.73,10.03,9.61,3.54,2.98,7.46,5.45,11.42,7.79l.1,.06c1.11,.66,1.48,2.1,.82,3.22-.66,1.11-2.1,1.48-3.22,.82-.03-.02-.06-.04-.09-.05-4.08-2.66-8.09-5.45-11.67-8.74-3.67-3.18-6.98-6.74-10.02-10.49-3.06-3.74-5.78-7.74-8.17-11.92-2.4-4.19-4.48-8.49-6.06-13.14-.19-.57,.11-1.18,.68-1.38,.55-.19,1.14,.09,1.35,.62l.03,.08Z"/>
                <path class="cls-4" d="M89.27,329.84c-1.72,7.98-1.68,16.47-.53,24.74,1.14,8.3,3.56,16.44,6.81,24.25,.22,.51-.02,1.09-.53,1.31-.49,.21-1.06-.01-1.29-.49-3.72-7.76-6.65-15.97-8.29-24.52-1.64-8.53-2.19-17.37-.78-26.18,.2-1.28,1.41-2.15,2.69-1.95,1.28,.2,2.15,1.41,1.95,2.69,0,.04-.02,.11-.03,.15Z"/>
              </g>
            </g>
          </g>
        </g>
      </g>
      <g>
        <g>
          <polygon class="cls-3" points="367.98 294.41 437.72 294.41 437.72 278.83 384.61 278.83 384.61 229.67 436.16 229.67 436.16 214.08 384.61 214.08 384.61 177.08 437.72 177.08 437.72 161.67 367.98 161.67 367.98 294.41"/>
          <polygon class="cls-3" points="523.41 210.96 502.17 210.96 474 239.8 474 161.67 458.05 161.67 458.05 294.41 474 294.41 474 260.35 476.51 257.7 509.08 294.41 529.79 294.41 487.53 246.65 523.41 210.96"/>
          <path class="cls-3" d="M566.09,242.62c-11.77-4.89-12.61-7.32-12.61-10.76,0-3.91,3.6-8.09,8.96-8.09,4.23,0,7.75,2.58,10.46,7.66l.44,.84,13.08-7.14-.41-.81c-5.01-10.02-12.77-15.1-23.06-15.1-14.09,0-24.72,10.18-24.72,23.68,0,11.28,5.2,16.58,24.16,24.64,10.73,4.74,12.64,7.45,12.64,12.68,0,7.01-5.18,11.91-12.6,11.91s-11.32-3.19-15.46-12.63l-.37-.85-14.02,5.92,.33,.85c5.47,14.11,15.4,21.26,29.52,21.26,16.1,0,28.71-12.08,28.71-27.5,0-12.51-5.62-18.47-25.05-26.55Z"/>
          <path class="cls-3" d="M609.22,304.06c0,16.17-4.1,21.63-16.25,21.63h-1.2l3.59,14.55h.73c19.28,0,29.06-11.35,29.06-33.74v-95.53h-15.94v93.1Z"/>
          <path class="cls-3" d="M701.63,194.26c5.97,0,10.83-4.78,10.83-10.66s-4.96-10.83-10.83-10.83-10.66,4.86-10.66,10.83,4.78,10.66,10.66,10.66Z"/>
          <path class="cls-3" d="M667.43,194.26c5.97,0,10.83-4.78,10.83-10.66s-4.96-10.83-10.83-10.83-10.66,4.86-10.66,10.83,4.78,10.66,10.66,10.66Z"/>
          <path class="cls-3" d="M617.1,172.77c-5.88,0-10.66,4.86-10.66,10.83s4.78,10.66,10.66,10.66,10.83-4.78,10.83-10.66-4.96-10.83-10.83-10.83Z"/>
          <path class="cls-3" d="M684.62,209.22c-24.25,0-43.98,19.34-43.98,43.12s19.17,44.33,43.64,44.33,44.33-19.17,44.33-43.64-19.32-43.81-43.98-43.81Zm-.35,72.9c-16.21,0-27.53-12.18-27.53-29.61,0-16.39,11.91-28.74,27.7-28.74s28.05,12.03,28.05,29.26-11.6,29.09-28.22,29.09Z"/>
        </g>
        <g>
          <polygon class="cls-3" points="433.35 375.15 412.11 375.15 383.94 403.98 383.94 325.88 368 325.88 368 458.6 383.94 458.6 383.94 424.54 386.45 421.9 419.03 458.6 439.76 458.6 397.48 410.84 433.35 375.15"/>
          <path class="cls-3" d="M481.93,373.41c-24.25,0-43.98,19.34-43.98,43.11s19.17,44.33,43.64,44.33,44.33-19.17,44.33-43.64-19.32-43.81-43.98-43.81Zm27.87,43.81c0,17.13-11.6,29.09-28.22,29.09s-27.53-12.18-27.53-29.61c0-16.39,11.91-28.74,27.7-28.74s28.05,12.03,28.05,29.26Z"/>
          <path class="cls-3" d="M622.51,373.24c-10.53,0-18.57,4.13-23.91,12.29-4.85-8.16-12.33-12.29-22.26-12.29-7.59,0-14.04,3.03-19.2,9.01v-7.1h-15.94v83.45h15.94v-45.2c0-17.24,5.48-25.62,16.76-25.62,9.41,0,13.99,7.02,13.99,21.45v49.36h15.94v-46.24c0-16.54,5.43-24.58,16.59-24.58,9.69,0,13.64,5.91,13.64,20.41v50.41h15.76v-52.66c0-10.63-2-18.31-6.1-23.49-4.72-6.12-11.86-9.22-21.23-9.22Z"/>
          <path class="cls-3" d="M749.38,373.24c-10.53,0-18.57,4.13-23.91,12.29-4.85-8.16-12.33-12.29-22.26-12.29-7.59,0-14.04,3.03-19.19,9.01v-7.1h-15.94v83.45h15.94v-45.2c0-17.24,5.48-25.62,16.77-25.62,9.41,0,13.99,7.02,13.99,21.45v49.36h15.94v-46.24c0-16.54,5.43-24.58,16.59-24.58,9.69,0,13.64,5.91,13.64,20.41v50.41h15.76v-52.66c0-10.64-2-18.32-6.1-23.49-4.72-6.12-11.86-9.22-21.22-9.22Z"/>
          <path class="cls-3" d="M844.41,423.64c0,19.92-8.39,22.67-17.46,22.67s-17.28-2.74-17.28-22.67v-48.5h-15.94v50.06c0,22.66,12.11,35.65,33.22,35.65s33.4-13,33.4-35.65v-50.06h-15.94v48.5Z"/>
          <path class="cls-3" d="M939.1,382.6c-5.14-6.21-12.69-9.36-22.42-9.36-8.52,0-16.02,3.44-22.32,10.24v-8.33h-15.94v83.45h15.94v-41.73c0-20.66,5.56-29.09,19.19-29.09,6.01,0,10.14,1.53,12.6,4.63,2.42,3.46,3.65,9.24,3.65,17.17v49.01h15.94v-51.62c0-11.04-2.24-19.24-6.64-24.38Z"/>
        </g>
      </g>
    </g>
  </g>
</svg>