<svg width="30" height="30" viewBox="0 0 30 30" fill="none" xmlns="http://www.w3.org/2000/svg">
<path d="M19.6871 13.125V7.5C19.6871 6.2568 19.1932 5.06451 18.3141 4.18544C17.435 3.30636 16.2428 2.8125 14.9996 2.8125C13.7564 2.8125 12.5641 3.30636 11.685 4.18544C10.8059 5.06451 10.3121 6.2568 10.3121 7.5V13.125M24.5071 10.6337L26.0858 25.6337C26.1733 26.465 25.5233 27.1875 24.6871 27.1875H5.31205C5.11481 27.1877 4.91973 27.1464 4.73949 27.0663C4.55924 26.9862 4.39786 26.8691 4.26583 26.7226C4.1338 26.5761 4.03407 26.4034 3.97312 26.2158C3.91217 26.0282 3.89137 25.8299 3.91205 25.6337L5.49205 10.6337C5.5285 10.2882 5.69159 9.96838 5.94987 9.73595C6.20815 9.50352 6.54334 9.37494 6.8908 9.375H23.1083C23.8283 9.375 24.4321 9.91875 24.5071 10.6337ZM10.7808 13.125C10.7808 13.2493 10.7314 13.3685 10.6435 13.4565C10.5556 13.5444 10.4364 13.5938 10.3121 13.5938C10.1877 13.5938 10.0685 13.5444 9.9806 13.4565C9.89269 13.3685 9.8433 13.2493 9.8433 13.125C9.8433 13.0007 9.89269 12.8815 9.9806 12.7935C10.0685 12.7056 10.1877 12.6562 10.3121 12.6562C10.4364 12.6562 10.5556 12.7056 10.6435 12.7935C10.7314 12.8815 10.7808 13.0007 10.7808 13.125ZM20.1558 13.125C20.1558 13.2493 20.1064 13.3685 20.0185 13.4565C19.9306 13.5444 19.8114 13.5938 19.6871 13.5938C19.5627 13.5938 19.4435 13.5444 19.3556 13.4565C19.2677 13.3685 19.2183 13.2493 19.2183 13.125C19.2183 13.0007 19.2677 12.8815 19.3556 12.7935C19.4435 12.7056 19.5627 12.6562 19.6871 12.6562C19.8114 12.6562 19.9306 12.7056 20.0185 12.7935C20.1064 12.8815 20.1558 13.0007 20.1558 13.125Z" stroke="black" stroke-width="1.5" stroke-linecap="round" stroke-linejoin="round"/>
<path d="M12.5813 15.3995C13.0075 15.0767 13.5278 14.9026 14.0625 14.9038C14.2472 14.8997 14.4299 14.9422 14.5937 15.0274C14.7576 15.1126 14.8973 15.2378 15 15.3913C15.1027 15.2378 15.2424 15.1126 15.4063 15.0274C15.5701 14.9422 15.7528 14.8997 15.9375 14.9038C16.4722 14.9026 16.9925 15.0767 17.4187 15.3995C17.7469 15.6545 18 16.0076 18.0894 16.4345C18.2944 16.4501 18.4819 16.5351 18.6394 16.6632C18.8781 16.857 19.0519 17.1476 19.1613 17.4551C19.3325 17.9332 19.3787 18.5426 19.2013 19.0613C19.2463 19.0826 19.2906 19.1076 19.3337 19.1363C19.5056 19.2507 19.6363 19.4145 19.7325 19.6076C19.9219 19.9857 20 20.5132 20 21.1538C20 21.867 19.7281 22.3457 19.3831 22.6413C19.1923 22.8049 18.9672 22.9235 18.7244 22.9882C18.6619 23.337 18.4869 23.7407 18.2125 24.0832C17.8563 24.5301 17.3038 24.9038 16.5625 24.9038C15.975 24.9038 15.5075 24.5788 15.2038 24.2601C15.1311 24.184 15.0631 24.1036 15 24.0195C14.9369 24.1036 14.8689 24.184 14.7962 24.2601C14.4925 24.5788 14.0256 24.9038 13.4375 24.9038C12.6962 24.9038 12.1444 24.5301 11.7875 24.0832C11.5311 23.7648 11.3555 23.3891 11.2756 22.9882C11.0328 22.9235 10.8077 22.8049 10.6169 22.6413C10.2719 22.3457 10 21.8663 10 21.1538C10 20.5132 10.0787 19.9851 10.2675 19.6076C10.357 19.4182 10.4944 19.2555 10.6662 19.1357C10.7085 19.1078 10.7528 19.0831 10.7988 19.062C10.6213 18.542 10.6675 17.9332 10.8388 17.4551C10.9481 17.1476 11.1219 16.857 11.3606 16.6632C11.5181 16.5351 11.7056 16.4507 11.9106 16.4345C12.0006 16.0076 12.2531 15.6545 12.5813 15.3995ZM14.6875 16.4663V16.4601L14.6863 16.4288C14.677 16.2659 14.6446 16.1051 14.59 15.9513C14.5511 15.8353 14.4849 15.7302 14.3969 15.6451C14.3046 15.5647 14.1848 15.5231 14.0625 15.5288C13.6668 15.5275 13.2815 15.6552 12.965 15.8926C12.675 16.1182 12.5 16.4238 12.5 16.7788C12.5 16.8283 12.4882 16.8771 12.4656 16.9211C12.443 16.9652 12.4103 17.0032 12.3702 17.0322C12.33 17.0611 12.2835 17.0801 12.2346 17.0875C12.1857 17.095 12.1357 17.0907 12.0887 17.0751C11.9713 17.0363 11.8663 17.0582 11.7544 17.1482C11.6319 17.2482 11.5125 17.4257 11.4269 17.6651C11.2525 18.1538 11.2706 18.7457 11.51 19.1057C11.5442 19.157 11.5625 19.2172 11.5625 19.2788H12.0312C12.4042 19.2788 12.7619 19.427 13.0256 19.6907C13.2893 19.9544 13.4375 20.3121 13.4375 20.6851V20.8945C13.646 20.9682 13.8217 21.1132 13.9336 21.304C14.0455 21.4947 14.0864 21.7189 14.049 21.9369C14.0116 22.1548 13.8984 22.3526 13.7293 22.4951C13.5602 22.6377 13.3462 22.7158 13.125 22.7158C12.9038 22.7158 12.6898 22.6377 12.5207 22.4951C12.3516 22.3526 12.2384 22.1548 12.201 21.9369C12.1636 21.7189 12.2045 21.4947 12.3164 21.304C12.4283 21.1132 12.604 20.9682 12.8125 20.8945V20.6851C12.8125 20.2538 12.4625 19.9038 12.0312 19.9038H10.9375C10.9001 19.9038 10.8631 19.897 10.8281 19.8838L10.8263 19.8876C10.7025 20.1345 10.625 20.5445 10.625 21.1538C10.625 21.6907 10.8219 21.9932 11.0238 22.1663C11.2406 22.3526 11.4813 22.4038 11.5625 22.4038C11.6454 22.4038 11.7249 22.4368 11.7835 22.4954C11.8421 22.554 11.875 22.6335 11.875 22.7163C11.875 22.9463 12 23.3482 12.275 23.6932C12.5431 24.0276 12.9288 24.2788 13.4375 24.2788C13.7875 24.2788 14.1012 24.0832 14.3438 23.8288C14.4631 23.7038 14.5563 23.5745 14.6169 23.4682C14.6445 23.4211 14.6681 23.3718 14.6875 23.3207V18.3413H14.0094C13.9357 18.5498 13.7906 18.7256 13.5998 18.8375C13.4091 18.9494 13.1849 18.9902 12.967 18.9528C12.749 18.9154 12.5513 18.8022 12.4087 18.6331C12.2662 18.464 12.188 18.25 12.188 18.0288C12.188 17.8077 12.2662 17.5937 12.4087 17.4246C12.5513 17.2555 12.749 17.1422 12.967 17.1048C13.1849 17.0674 13.4091 17.1083 13.5998 17.2202C13.7906 17.3321 13.9357 17.5078 14.0094 17.7163H14.6875V16.4663ZM15.3125 22.7157V23.3201C15.3319 23.3711 15.3555 23.4205 15.3831 23.4676C15.4444 23.5738 15.5369 23.7032 15.6556 23.8282C15.8987 24.0826 16.2131 24.2782 16.5625 24.2782C17.0712 24.2782 17.4569 24.027 17.725 23.6926C18 23.3476 18.125 22.9457 18.125 22.7157C18.125 22.6328 18.1579 22.5533 18.2165 22.4947C18.2751 22.4361 18.3546 22.4032 18.4375 22.4032C18.5188 22.4032 18.7594 22.352 18.9762 22.1657C19.1781 21.9926 19.375 21.6901 19.375 21.1532C19.375 20.5438 19.2969 20.1345 19.1737 19.887C19.1326 19.7948 19.0679 19.7151 18.9862 19.6557C18.9159 19.6107 18.8335 19.5883 18.75 19.5913C18.6935 19.5913 18.638 19.576 18.5895 19.5469C18.541 19.5178 18.5013 19.4762 18.4747 19.4263C18.448 19.3765 18.4353 19.3204 18.438 19.2639C18.4407 19.2074 18.4587 19.1528 18.49 19.1057C18.73 18.7457 18.7475 18.1538 18.5731 17.6651C18.4875 17.4257 18.3681 17.2476 18.2456 17.1482C18.1337 17.0582 18.0288 17.0357 17.9113 17.0751C17.8643 17.0907 17.8143 17.095 17.7654 17.0875C17.7165 17.0801 17.67 17.0611 17.6298 17.0322C17.5897 17.0032 17.557 16.9652 17.5344 16.9211C17.5118 16.8771 17.5 16.8283 17.5 16.7788C17.5 16.4238 17.325 16.1182 17.0344 15.8926C16.718 15.6553 16.3329 15.5276 15.9375 15.5288C15.8152 15.5231 15.6954 15.5647 15.6031 15.6451C15.5149 15.7301 15.4484 15.8352 15.4094 15.9513C15.3499 16.1146 15.3172 16.2864 15.3125 16.4601V22.0913H15.7812C16.2125 22.0913 16.5625 21.7413 16.5625 21.3101V20.1632C16.354 20.0895 16.1783 19.9444 16.0664 19.7537C15.9545 19.5629 15.9136 19.3388 15.951 19.1208C15.9884 18.9028 16.1016 18.7051 16.2707 18.5626C16.4398 18.42 16.6538 18.3418 16.875 18.3418C17.0962 18.3418 17.3102 18.42 17.4793 18.5626C17.6484 18.7051 17.7616 18.9028 17.799 19.1208C17.8364 19.3388 17.7955 19.5629 17.6836 19.7537C17.5717 19.9444 17.396 20.0895 17.1875 20.1632V21.3101C17.1875 21.6831 17.0393 22.0407 16.7756 22.3045C16.5119 22.5682 16.1542 22.7163 15.7812 22.7163L15.3125 22.7157ZM12.8125 18.0288C12.8125 18.1117 12.8454 18.1912 12.904 18.2498C12.9626 18.3084 13.0421 18.3413 13.125 18.3413C13.2079 18.3413 13.2874 18.3084 13.346 18.2498C13.4046 18.1912 13.4375 18.1117 13.4375 18.0288C13.4375 17.946 13.4046 17.8665 13.346 17.8079C13.2874 17.7493 13.2079 17.7163 13.125 17.7163C13.0421 17.7163 12.9626 17.7493 12.904 17.8079C12.8454 17.8665 12.8125 17.946 12.8125 18.0288ZM16.875 19.5913C16.9579 19.5913 17.0374 19.5584 17.096 19.4998C17.1546 19.4412 17.1875 19.3617 17.1875 19.2788C17.1875 19.196 17.1546 19.1165 17.096 19.0579C17.0374 18.9993 16.9579 18.9663 16.875 18.9663C16.7921 18.9663 16.7126 18.9993 16.654 19.0579C16.5954 19.1165 16.5625 19.196 16.5625 19.2788C16.5625 19.3617 16.5954 19.4412 16.654 19.4998C16.7126 19.5584 16.7921 19.5913 16.875 19.5913ZM13.125 21.4663C13.0421 21.4663 12.9626 21.4993 12.904 21.5579C12.8454 21.6165 12.8125 21.696 12.8125 21.7788C12.8125 21.8617 12.8454 21.9412 12.904 21.9998C12.9626 22.0584 13.0421 22.0913 13.125 22.0913C13.2079 22.0913 13.2874 22.0584 13.346 21.9998C13.4046 21.9412 13.4375 21.8617 13.4375 21.7788C13.4375 21.696 13.4046 21.6165 13.346 21.5579C13.2874 21.4993 13.2079 21.4663 13.125 21.4663Z" fill="black"/>
</svg>
